<svg xmlns="http://www.w3.org/2000/svg" width="96.599" height="121.044" viewBox="0 0 96.599 121.044"><path d="M125.562,157.692a13,13,0,0,1-7.683,8.771h-9.74a12.89,12.89,0,0,1-8.085-11.963q0-.709.071-1.419a20.4,20.4,0,0,0-4.3-4.61,23.175,23.175,0,0,0-7.471-3.924A1.824,1.824,0,0,0,88,144.5a1.349,1.349,0,0,0-.827.284,1.333,1.333,0,0,0-.52,1.064v14.279a31.072,31.072,0,0,0-18.18,25.722h-7.92A1.347,1.347,0,0,0,59.2,187.2V205.14a1.362,1.362,0,0,0,1.348,1.348H71.99A31.226,31.226,0,0,0,89.319,221.24v8.393h14.516l.993-6.69h16.218c.378,0,.78,0,1.158-.024l.993,6.714h14.516v-11.49A31,31,0,0,0,152.229,191.9v-3.475a31.079,31.079,0,0,0-26.668-30.734Z" transform="translate(-57.427 -110.338)" fill="#fbb13c"/><path d="M68.349,193.283a.183.183,0,0,1,.189-.165h4.255a1.36,1.36,0,0,0,1.348-1.229,33.992,33.992,0,0,1,19.882-28.133,1.334,1.334,0,0,0,.78-1.229V147.939a23.48,23.48,0,0,0-6.478-3.192,1.825,1.825,0,0,0-.355-.047,1.349,1.349,0,0,0-.827.284,1.333,1.333,0,0,0-.52,1.064v14.279a31.072,31.072,0,0,0-18.18,25.722h-7.9A1.347,1.347,0,0,0,59.2,187.4v17.9a1.362,1.362,0,0,0,1.348,1.348h7.8Z" transform="translate(-57.427 -110.491)" fill="#f99300"/><path d="M239.833,157.071h9.74A12.927,12.927,0,1,0,231.7,145.108,13.039,13.039,0,0,0,239.833,157.071Z" transform="translate(-189.145 -100.946)" fill="#ffdc48"/><path d="M273.041,167.047a6.171,6.171,0,1,1-6.17-6.147A6.155,6.155,0,0,1,273.041,167.047Z" transform="translate(-211.289 -122.861)" fill="#fea613"/><path d="M265.328,167.047a6.165,6.165,0,0,1,3.806-5.674,6.147,6.147,0,1,0,0,11.348,6.19,6.19,0,0,1-3.806-5.674Z" transform="translate(-211.213 -122.861)" fill="#fb8801"/><circle cx="12.979" cy="12.979" r="12.979" transform="translate(20.27 2.306) rotate(-2.407)" fill="#ffdc48"/><circle cx="6.17" cy="6.17" r="6.17" transform="translate(27.577 8.619) rotate(-0.344)" fill="#fea613"/><path d="M173.228,42.47a6.173,6.173,0,0,1,3.806-5.7,6.17,6.17,0,1,0,0,11.4,6.162,6.162,0,0,1-3.806-5.7Z" transform="translate(-140.887 -27.718)" fill="#fb8801"/><path d="M85.241,136.07a6.17,6.17,0,1,1-6.17-6.17A6.175,6.175,0,0,1,85.241,136.07Z" transform="translate(-67.888 -99.19)" fill="#fea613"/><path d="M77.628,136.07a6.173,6.173,0,0,1,3.806-5.7,6.17,6.17,0,1,0,0,11.4A6.162,6.162,0,0,1,77.628,136.07Z" transform="translate(-67.888 -99.19)" fill="#fb8801"/><path d="M380.941,102.07a6.17,6.17,0,1,1-6.17-6.17A6.175,6.175,0,0,1,380.941,102.07Z" transform="translate(-293.68 -73.228)" fill="#ffdc48"/><path d="M373.328,102.07a6.173,6.173,0,0,1,3.806-5.7,6.17,6.17,0,1,0,0,11.4A6.137,6.137,0,0,1,373.328,102.07Z" transform="translate(-293.68 -73.228)" fill="#fea613"/><path d="M148.3,152.706V149.23a32.679,32.679,0,0,0-7.731-21.112,1.778,1.778,0,0,0-2.719,2.293,29.176,29.176,0,0,1,6.9,18.819v3.475a29.1,29.1,0,0,1-13.688,24.729,1.774,1.774,0,0,0-.827,1.489v9.74H119.031l-.757-5.2a1.79,1.79,0,0,0-1.82-1.513c-.4.024-.757.024-1.088.024H110.4a1.773,1.773,0,1,0,0,3.546h4.563l.473,3.144H100.189l.473-3.144h1.489a1.773,1.773,0,1,0,0-3.546H99.125a1.759,1.759,0,0,0-1.749,1.513l-.757,5.177H85.413v-6.62a1.775,1.775,0,0,0-1.206-1.679,29.335,29.335,0,0,1-16.336-13.9,1.784,1.784,0,0,0-1.56-.946H55.246V148.474h7.471a1.777,1.777,0,0,0,1.773-1.631,29.249,29.249,0,0,1,17.14-24.256,1.762,1.762,0,0,0,1.04-1.608V107.29a22.454,22.454,0,0,1,6.289,3.428,18.761,18.761,0,0,1,3.57,3.688c-.024.307-.024.615-.024.922a14.553,14.553,0,0,0,4.114,10.189H95.413a1.773,1.773,0,1,0,0,3.546h24.469a1.773,1.773,0,0,0,0-3.546h-2.01a14.356,14.356,0,0,0,3.168-4.988,29.368,29.368,0,0,1,10.97,4.61,1.767,1.767,0,1,0,2.01-2.908,32.924,32.924,0,0,0-12.152-5.154,14.2,14.2,0,0,0,.095-1.749,14.621,14.621,0,0,0-4.941-10.946v-3.1a1.773,1.773,0,1,0-3.546,0v.757a14.251,14.251,0,0,0-4.326-1.253V94.973a1.773,1.773,0,1,0-3.546,0v5.792a15.342,15.342,0,0,0-4.634,1.3V100.1a1.773,1.773,0,0,0-3.546,0v4.3a14.736,14.736,0,0,0-3.948,5.674,25,25,0,0,0-2.341-2.128,24.721,24.721,0,0,0-8.109-4.232,3.144,3.144,0,0,0-2.7.544,3.183,3.183,0,0,0-1.229,2.482v13.121a32.83,32.83,0,0,0-17.991,25.06H54.821a3.118,3.118,0,0,0-3.121,3.121v17.92a3.118,3.118,0,0,0,3.121,3.121h10.4a32.789,32.789,0,0,0,16.6,14.209v5.367H53.473a1.773,1.773,0,1,0,0,3.546H146.5a1.773,1.773,0,1,0,0-3.546H133.76v-8.747a32.613,32.613,0,0,0,14.54-27.211Zm-41.042-48.489a11.123,11.123,0,0,1,4.516,21.325h-9.031a11.123,11.123,0,0,1,4.516-21.325Z" transform="translate(-51.7 -71.166)"/><path d="M134.9,301.373v9.22a1.773,1.773,0,1,0,3.546,0v-9.22a1.773,1.773,0,0,0-3.546,0Z" transform="translate(-115.23 -228.77)"/><path d="M261.044,169.14a7.92,7.92,0,1,0-7.944-7.92A7.941,7.941,0,0,0,261.044,169.14Zm0-12.27a4.374,4.374,0,1,1-4.4,4.374A4.384,4.384,0,0,1,261.044,156.87Z" transform="translate(-205.486 -117.058)"/><path d="M146.952,29.481a14.657,14.657,0,0,0,13.736-9.362,1.767,1.767,0,1,0-3.286-1.3,11.22,11.22,0,1,1,.331-7.116,1.781,1.781,0,1,0,3.428-.969,14.756,14.756,0,1,0-14.209,18.748Z" transform="translate(-113.169)"/><path d="M168.944,28.8a7.944,7.944,0,1,0,7.944,7.944,7.961,7.961,0,0,0-7.944-7.944Zm0,12.341a4.4,4.4,0,1,1,4.4-4.4,4.389,4.389,0,0,1-4.4,4.4Z" transform="translate(-135.16 -21.991)"/><path d="M73.344,138.287a7.944,7.944,0,1,0-7.944-7.944A7.961,7.961,0,0,0,73.344,138.287Zm0-12.341a4.4,4.4,0,1,1-4.4,4.4A4.4,4.4,0,0,1,73.344,125.946Z" transform="translate(-62.161 -93.463)"/><path d="M369.044,104.287a7.944,7.944,0,1,0-7.944-7.944A7.961,7.961,0,0,0,369.044,104.287Zm0-12.341a4.4,4.4,0,1,1-4.4,4.4A4.389,4.389,0,0,1,369.044,91.946Z" transform="translate(-287.953 -67.501)"/><circle cx="1.773" cy="1.773" r="1.773" transform="translate(53.95 14.847)"/><circle cx="1.773" cy="1.773" r="1.773" transform="translate(61.822 21.443)"/></svg>