<svg xmlns="http://www.w3.org/2000/svg" width="126.723" height="121.654" viewBox="0 0 126.723 121.654"><g transform="translate(29.207 2.475)"><rect width="16.93" height="9.777" transform="translate(39.009 11.881)" fill="#d5f5fb"/><path d="M255.84,32.181h17.821a5.926,5.926,0,0,0,5.94-5.94h0a5.926,5.926,0,0,0-5.94-5.94H255.84a5.926,5.926,0,0,0-5.94,5.94h0A5.942,5.942,0,0,0,255.84,32.181Z" transform="translate(-217.253 -20.3)" fill="#f78487"/><circle cx="47.523" cy="47.523" r="47.523" transform="translate(0 21.633)" fill="#fbb13c"/><circle cx="35.915" cy="35.915" r="35.915" transform="translate(11.609 33.241)" fill="#fff"/><circle cx="5.223" cy="5.223" r="5.223" transform="translate(42.301 63.934)" fill="#ff838e"/></g><path d="M126.481,76.981A49.95,49.95,0,0,0,87.621,33.2V26.884A8.416,8.416,0,0,0,85.591,10.3H67.77a8.416,8.416,0,0,0-2.03,16.584V33.2A49.757,49.757,0,0,0,41.36,46.611a50.961,50.961,0,0,0-4.208,4.777h-17.8a2.475,2.475,0,1,0,0,4.95H33.811a50.656,50.656,0,0,0-4.381,9.5H2.475a2.475,2.475,0,1,0,0,4.95H28.019a51.54,51.54,0,0,0-1.238,9.5H15.841a2.475,2.475,0,0,0,0,4.95H26.856a49.735,49.735,0,0,0,1.535,9.5H12.376a2.475,2.475,0,1,0,0,4.95H30a49.273,49.273,0,0,0,11.386,17.6A50.178,50.178,0,0,0,71.8,131.707a46.417,46.417,0,0,0,4.9.248,50.087,50.087,0,0,0,27.276-8.069,2.468,2.468,0,0,0-2.7-4.134,45.065,45.065,0,1,1,13.267-13.292,2.468,2.468,0,0,0,4.134,2.7A50.175,50.175,0,0,0,126.481,76.981ZM64.33,18.716a3.475,3.475,0,0,1,3.465-3.465H85.616a3.465,3.465,0,0,1,0,6.93H67.795A3.46,3.46,0,0,1,64.33,18.716Zm6.361,13.613v-5.2h11.98v5.2A49.738,49.738,0,0,0,70.691,32.329Z" transform="translate(0 -10.3)"/><path d="M438.275,425.5a2.6,2.6,0,0,0-1.757.718,2.45,2.45,0,0,0-.718,1.757,2.556,2.556,0,0,0,.718,1.757,2.45,2.45,0,0,0,1.757.718,2.6,2.6,0,0,0,1.757-.718,2.45,2.45,0,0,0,.718-1.757,2.556,2.556,0,0,0-.718-1.757A2.6,2.6,0,0,0,438.275,425.5Z" transform="translate(-327.932 -322.731)"/><path d="M193.29,144.6a38.4,38.4,0,1,0,38.39,38.415A38.44,38.44,0,0,0,193.29,144.6Zm0,71.854a33.452,33.452,0,1,1,33.44-33.464A33.476,33.476,0,0,1,193.29,216.454Z" transform="translate(-116.56 -111.359)"/><path d="M285.918,220.061l-12.252,12.252a7.655,7.655,0,0,0-6.782,0l-5.495-5.495a2.468,2.468,0,0,0-3.49,3.49l5.495,5.495a7.7,7.7,0,1,0,13.811,0L289.111,223.9h0l.371-.371a2.465,2.465,0,0,0,0-3.49A2.555,2.555,0,0,0,285.918,220.061ZM270.25,241.966A2.747,2.747,0,1,1,273,239.219,2.757,2.757,0,0,1,270.25,241.966Z" transform="translate(-193.52 -167.587)"/><path d="M402.377,289.9h-2.3a2.475,2.475,0,0,0,0,4.95h2.3a2.475,2.475,0,0,0,0-4.95Z" transform="translate(-299.187 -220.694)"/><path d="M197.777,289.6h-2.3a2.475,2.475,0,1,0,0,4.95h2.3a2.475,2.475,0,1,0,0-4.95Z" transform="translate(-145.229 -220.469)"/><path d="M302.575,190.052a2.482,2.482,0,0,0,2.475-2.475v-2.3a2.475,2.475,0,0,0-4.95,0v2.3A2.482,2.482,0,0,0,302.575,190.052Z" transform="translate(-225.82 -140.103)"/><path d="M302.375,387.4a2.482,2.482,0,0,0-2.475,2.475v2.3a2.475,2.475,0,1,0,4.95,0v-2.3A2.482,2.482,0,0,0,302.375,387.4Z" transform="translate(-225.67 -294.061)"/><path d="M2.475,351.4a2.6,2.6,0,0,0-1.757.718A2.45,2.45,0,0,0,0,353.875a2.6,2.6,0,0,0,.718,1.757,2.409,2.409,0,0,0,1.757.718,2.556,2.556,0,0,0,1.757-.718,2.45,2.45,0,0,0,.718-1.757,2.556,2.556,0,0,0-.718-1.757A2.6,2.6,0,0,0,2.475,351.4Z" transform="translate(0 -266.972)"/></svg>